# xmcd CD Database Entry
#
# Track frame offsets:
# 150
# 15330
# 27320
# 46270
# 61787
# 81842
# 95775
# 111327
# 130334
# 147756
# 171563
#
# Disc length: 2702 seconds
#
# Revision: 4
# Processed by: cddbd v1.4PL0 Copyright (c) Steve Scherf et al.
# Submitted via: tcd 2.0b
#
DISCID=920a8c0b
DTITLE=Law Biting Citizens - Don't Know Why It All Has To Make Sense
DTITLE=
DYEAR=1900
DGENRE=
TTITLE0=For a Friend
TTITLE1=Breaking
TTITLE2=Selective Memory
TTITLE3=Scenic W.V.
TTITLE4=So Long Suckers
TTITLE5=Infection
TTITLE6=Over the Edge
TTITLE7=Stuck In a Rut
TTITLE8=Lazy Boys
TTITLE9=9 Lives of the Alleycat
TTITLE10=Like You
EXTD=
EXTT0=
EXTT1=
EXTT2=
EXTT3=
EXTT4=
EXTT5=
EXTT6=
EXTT7=
EXTT8=
EXTT9=
EXTT10=
PLAYORDER=
